<?xml version="1.0" encoding="UTF-8"?>
<svg version="1.1" viewBox="0 0 2048 1053" width="1280" height="1280" xmlns="http://www.w3.org/2000/svg">
<path transform="translate(0)" d="m0 0h2048v1053h-2048z" fill="#FCFCFD"/>
<path transform="translate(276,460)" d="m0 0h77l16 4 16 6 15 8 11 8 12 11 10 14 11 21 4 13 3 21v189l-2 16-5 16-8 14-11 14-11 9-14 8-13 5-15 3h-19l-21-5-16-8-11-8-10-10-11-16-6-13-3-10-1-10v-71l1-53h-117l-17-2-15-4-16-8-12-9-11-11-7-10-7-14-4-15v-28l4-17 6-14 9-13 9-9 14-10 17-8 15-3z" fill="#5077FC"/>
<path transform="translate(352,258)" d="m0 0h19l15 3 16 6 15 9 12 11 10 14 7 15 3 12 1 8 1 63v62h64l61 1 14 2 16 6 12 7 11 9 10 10 7 11 7 15 4 17v18l-3 16-5 12-7 12-11 12-7 7-10 7-16 8-14 4-17 2-101 1-15-1-1-71-3-21-5-15-10-19-8-11-8-9-10-8-13-8-15-7-19-6-6-1h-177v-1h99v-93l1-29 2-15 5-13 8-14 8-10 8-8 13-9 15-7z" fill="#64D5FD"/>
<path transform="translate(276,460)" d="m0 0h77l16 4 16 6 15 8 11 8 12 11 10 14 11 21 4 13 3 21v71l-2 1-64-1-25-4-15-5-19-9-11-8-12-11-10-13-9-17-8-24-2-15v-70z" fill="#201EEE"/>
<path transform="translate(1366,368)" d="m0 0h16l14 4 13 7 9 8 9 12 7 14 4 14 1 8v12l-3 15-5 13-6 10-11 12-8 6-12 6-7 2h-23l-13-5-11-8-8-6v75h-39l-1-1v-195h39l1 1v9l-1 8 9-7 7-6 15-7z" fill="#2121EE"/>
<path transform="translate(843,620)" d="m0 0h20l13 4 9 5 10 9 8 10 7 12 5 15 1 5v23l-4 16-7 14-7 9-5 6-13 9-12 5-11 2-15-1-13-5-7-4v-2l-4-1v-2l-4-2-4-3-1 75h-39v-177l1-20h37l1 1v19h2l2-4 10-9 8-5z" fill="#2121EE"/>
<path transform="translate(846,368)" d="m0 0h13l15 4 11 6 10 9 8 9 8 15 4 13 1 5v23l-4 15-5 11-7 10-6 7-13 10-11 5-9 2h-14l-13-3-13-8-10-9-1-1-1 76-1 1h-37l-1-1v-164l1-32 37-1 1 2v18l8-7 10-8 11-5z" fill="#2121EE"/>
<path transform="translate(1419,619)" d="m0 0h11l13 4 12 7 11 12 5-5 13-10 11-5 12-3h9l12 3 10 5 8 7 9 14 4 12 1 6v93l-5 2h-34l-1-1-1-90-4-6-8-5-3-1h-11l-9 3v2l-5 5h-2l-3 9-1 1-1 82h-38l-1-1v-81l-2-10-3-5-10-5-9-1-8 3-8 6-5 6-1 3-1 84-2 1h-37v-138h38l1 1 1 17 12-12 12-7z" fill="#22e"/>
<path transform="translate(939,564)" d="m0 0h38l1 24 1 53 8-9 10-7 12-5 6-1h9l12 3 10 5 10 9 7 10 5 12 2 9v93l-2 1h-35l-1-1-1-77-2-11-5-8-10-6h-15l-8 4h-2v2l-3 3h-2l-2 4-3 5-1 8-1 76h-37l-1-7z" fill="#2120EE"/>
<path transform="translate(1151,619)" d="m0 0h10l18 4 12 6 9 7 8 11 5 10 3 13v90l-4 1h-36v-15l-5 2-5 4h-2l-1 3-14 8-7 2h-15l-10-4-8-6-5-5-7-8-4-11v-17l5-13 11-12 10-6 13-4 43-8-1-6-5-6-8-3h-18l-10 5h-2v2l-6 4-7-1-11-11-7-8 2-4 12-10 11-7 14-5z" fill="#22e"/>
<path transform="translate(1635,620)" d="m0 0h22l15 4 8 4 9 7 7 8 6 10 4 14v92l-3 2h-36l-1-15h-3l-6 6h-2v2l-10 6-10 4-15 1-15-5-11-9-9-13-2-6v-19l4-10 7-9 5-5h2v-2l10-5 20-5 33-6h3l-4-8-6-5-4-2h-19l-9 4-5 2v2l-5 3h-6l-7-8-8-9-4-4 4-5 10-8 16-9 9-3z" fill="#2122EE"/>
<path transform="translate(1870,622)" d="m0 0h27l4 6 17 49 12 32 2 2 12-36 16-47 4-6h37l1 5-9 25-13 35-18 48-13 34-7 16-7 11-8 10-8 7-12 5-4 1h-22l-9-3-4-3-1-3v-22l1-7h22l8-4 7-8 3-6v-8l-14-36-19-48-15-39-3-9z" fill="#22e"/>
<path transform="translate(1654,370)" d="m0 0h7l1 1 1 10v127l-1 1h-38v-16l-1-3-11 11h-2v2l-16 8h-23l-11-4-9-6-9-10-4-7-4-8-3-14v-88l1-3h37l1 1 1 81 3 10 4 6 9 4h13l10-3 7-6 5-9 1-7 1-77z" fill="#22e"/>
<path transform="translate(1033,370)" d="m0 0h13l1 1 1 80 4 13 5 6 9 3h12l10-3 7-6 4-8 2-12 1-72 2-1h36l1 3v126l-1 9h-40l1-7 1-1v-9l-4 1-5 6-4 3h-2v2l-9 5-7 2h-22l-12-4-8-6-8-8-7-11-4-13-1-8v-89l1-1z" fill="#2121EE"/>
<path transform="translate(1204,368)" d="m0 0h24l17 5 16 8 9 7-2 4-9 10-7 8-2 2-6-1-10-4-13-3h-11l-5 2-1 7v2l9 3 29 11 14 8 9 8 7 12 2 8v8l-4 12-7 9-4 4h-2v2l-16 8-15 4h-17l-17-3-15-6-11-7-9-8 1-5 6-7 5-5 7-8 5 1 11 7 15 5h17l6-4 1-6-2-3-29-10-17-8-11-9-7-9-3-8v-18l4-9 9-10 11-8 13-5z" fill="#22e"/>
<path transform="translate(1728,368)" d="m0 0h22l15 4 16 7 12 8v4h-2l-2 4-10 11-5 6-7-1-18-6-6-1h-8l-7 4-1 5 6 4 28 10 16 8 9 7 7 9 4 11v11l-4 12-4 6-11 11-15 7-8 2h-30l-13-3-14-6-8-5v-2l-5-2-5-4-1-3 3-4h2l2-4 12-12 3-2h5l5 4 12 6 8 2h16l6-2 1-2v-7l-1-2-29-10-19-9-12-11-6-10-2-7v-11l4-12 6-8 8-7 16-8z" fill="#2122EE"/>
<path transform="translate(1794,619)" d="m0 0h14l17 4 16 8 11 9 7 6-2 4-7 7-7 8-7 6-5-2-8-6-10-5-4-1h-17l-10 5h-2v2l-7 6-4 8-2 9 1 14 4 10 4 5v2l14 7 13 2 10-2 12-6 3-3h2v-2l6-2 7 6 7 8 9 7-1 4-9 9-13 9-14 6-9 2h-21l-14-3-14-6-13-10-7-7-9-14-5-12-2-9v-21l3-13 8-16 9-10 7-7 13-8 16-6z" fill="#22e"/>
<path transform="translate(1462,312)" d="m0 0h37l1 9v187l-3 1h-30l-6-1v-195z" fill="#2121EE"/>
<path transform="translate(962,311)" d="m0 0h14l1 1 1 49v147l-1 1h-38v-197z" fill="#2120EE"/>
<path transform="translate(1316,620)" d="m0 0h13v40l-25 2-6 4-9 10-3 12-1 68-2 4h-38v-121l1-16 1-1h37l1 1 1 17 7-6 11-9 8-4z" fill="#22e"/>
<path transform="translate(1358,404)" d="m0 0h11l10 3 10 6 6 8 4 12v17l-5 11-7 8-12 6-4 1h-13l-13-5-10-10-4-9-1-6v-10l2-9 6-11 6-6h2v-2z" fill="#FCFCFD"/>
<path transform="translate(835,404)" d="m0 0h13l9 3 7 4 7 7 5 10 1 6v14l-5 12-8 9-12 6-3 1h-12l-12-4-9-7-6-10-2-7v-15l4-11 4-6h2l2-4 9-6z" fill="#FCFCFD"/>
<path transform="translate(838,655)" d="m0 0 12 1 12 5 9 9 4 8 2 9v12l-4 10-4 6-9 8-9 4-11 1-12-3-9-6-7-8-3-7-1-5v-16l4-9 4-6 7-7 7-4z" fill="#FCFCFD"/>
<path transform="translate(1660,700)" d="m0 0h7l-1 10-3 9-7 7-9 4-4 1h-11l-6-3-4-5v-10l5-5 13-4z" fill="#FCFCFD"/>
<path transform="translate(1172,700)" d="m0 0h5l-1 10-4 10-9 8-6 2h-18l-6-5-2-5 1-7 5-5 12-4z" fill="#FCFCFD"/>
<path transform="translate(82,592)" d="m0 0 4 5 12 13 13 9 16 8 13 4 5 1v1h-9l-15-5-14-8-10-8-10-10-5-7z" fill="#3445F4"/>
<path transform="translate(1666,742)" d="m0 0h2v18h35v1h-36l-1-15-3-2z" fill="#5CACFD"/>
<path transform="translate(125,627)" d="m0 0 11 3 9 2v1h-9l-10-3z" fill="#3142F2"/>
<path transform="translate(112,620)" d="m0 0 13 7v2l-6-2-9-5z" fill="#3753F4"/>
</svg>
