<?xml version="1.0" encoding="UTF-8"?>
<svg xmlns="http://www.w3.org/2000/svg" xmlns:xlink="http://www.w3.org/1999/xlink" width="1200px" height="580px" viewBox="0 0 1200 580" version="1.1">
<g id="surface1">
<path style=" stroke:none;fill-rule:nonzero;fill:rgb(99.607843%,99.607843%,99.215686%);fill-opacity:1;" d="M 0 170.203125 L 1200 170.203125 L 1200 409.796875 L 0 409.796875 Z M 0 170.203125 "/>
<path style=" stroke:none;fill-rule:nonzero;fill:rgb(61.176471%,75.294118%,33.333333%);fill-opacity:1;" d="M 140.039062 180.96875 L 151.757812 180.96875 L 164.648438 181.816406 L 175.78125 183.234375 L 185.15625 184.929688 L 194.53125 187.195312 L 201.5625 189.179688 L 209.765625 192.296875 L 215.625 194.84375 L 248.4375 210.703125 L 249.023438 211.269531 L 250.78125 211.554688 L 251.953125 210.421875 L 287.109375 193.429688 L 293.554688 190.878906 L 302.34375 187.765625 L 310.546875 185.5 L 319.921875 183.515625 L 329.296875 182.101562 L 338.085938 181.25 L 345.703125 180.96875 L 360.351562 180.96875 L 372.65625 181.816406 L 384.960938 183.515625 L 396.09375 185.78125 L 405.46875 188.328125 L 413.671875 191.164062 L 420.703125 194.277344 L 426.5625 197.109375 L 433.007812 201.359375 L 438.28125 205.890625 L 442.96875 210.703125 L 446.484375 216.085938 L 448.242188 220.617188 L 448.828125 223.730469 L 448.828125 231.945312 L 447.070312 237.890625 L 441.796875 245.539062 L 434.765625 252.050781 L 428.320312 256.582031 L 423.046875 259.695312 L 416.015625 263.378906 L 410.742188 265.929688 L 406.054688 267.910156 L 402.539062 269.328125 L 400.78125 269.609375 L 353.90625 269.609375 L 346.875 269.328125 L 344.53125 267.910156 L 336.328125 260.265625 L 331.640625 256.867188 L 329.296875 257.148438 L 324.023438 261.113281 L 315.234375 269.328125 L 309.375 274.707031 L 298.828125 285.1875 L 294.140625 288.867188 L 291.210938 290.28125 L 287.695312 289.148438 L 283.59375 286.320312 L 278.320312 281.503906 L 273.046875 277.820312 L 270.117188 276.6875 L 267.773438 277.257812 L 264.257812 279.804688 L 257.226562 285.75 L 251.367188 289.71875 L 249.609375 290.28125 L 246.09375 288.867188 L 239.0625 282.351562 L 222.070312 265.929688 L 214.453125 259.414062 L 210.9375 256.867188 L 208.007812 257.429688 L 203.90625 259.980469 L 196.289062 266.777344 L 192.1875 269.042969 L 188.085938 269.609375 L 155.859375 269.609375 L 145.898438 269.328125 L 143.554688 268.757812 L 143.554688 265.078125 L 145.3125 263.09375 L 185.15625 262.8125 L 191.015625 257.429688 L 199.804688 249.21875 L 205.664062 244.121094 L 208.59375 242.703125 L 211.523438 242.988281 L 215.625 245.820312 L 225.585938 255.164062 L 241.992188 271.023438 L 247.851562 275.839844 L 250.195312 276.6875 L 251.367188 275.554688 L 256.054688 272.441406 L 263.085938 266.492188 L 268.359375 261.960938 L 270.703125 261.679688 L 274.804688 264.226562 L 282.421875 271.023438 L 288.867188 275.554688 L 291.210938 276.40625 L 298.828125 270.175781 L 307.03125 262.53125 L 325.78125 244.40625 L 329.296875 242.988281 L 332.226562 242.988281 L 336.328125 245.539062 L 343.359375 252.050781 L 352.734375 261.113281 L 355.078125 262.8125 L 359.179688 263.09375 L 397.265625 262.8125 L 401.953125 261.113281 L 410.742188 256.867188 L 416.015625 253.75 L 421.875 250.070312 L 427.148438 245.539062 L 431.835938 240.15625 L 434.765625 234.773438 L 435.351562 233.078125 L 435.351562 222.882812 L 433.59375 218.066406 L 428.90625 211.269531 L 424.21875 206.738281 L 418.359375 202.492188 L 411.914062 198.808594 L 404.296875 195.695312 L 395.507812 192.859375 L 383.203125 190.03125 L 373.828125 188.613281 L 363.867188 187.765625 L 349.804688 187.480469 L 339.257812 187.765625 L 330.46875 188.613281 L 321.679688 190.03125 L 312.304688 192.296875 L 304.101562 194.84375 L 296.484375 197.960938 L 290.625 200.507812 L 283.59375 203.625 L 271.289062 209.570312 L 267.1875 211.835938 L 264.257812 213.25 L 252.539062 218.351562 L 249.609375 218.914062 L 244.921875 217.5 L 237.304688 214.101562 L 230.859375 210.984375 L 226.171875 209.003906 L 217.382812 204.757812 L 213.28125 202.492188 L 205.664062 198.808594 L 199.21875 196.257812 L 192.1875 193.710938 L 182.226562 191.164062 L 171.09375 189.179688 L 160.546875 188.046875 L 151.171875 187.480469 L 138.867188 187.480469 L 129.492188 188.046875 L 117.773438 189.746094 L 108.398438 191.726562 L 100.78125 193.710938 L 93.75 196.257812 L 87.890625 198.808594 L 83.203125 201.074219 L 77.34375 205.039062 L 71.484375 209.851562 L 66.796875 215.515625 L 64.453125 220.046875 L 63.28125 224.015625 L 63.28125 231.375 L 65.039062 236.191406 L 68.554688 241.570312 L 72.65625 246.101562 L 77.34375 250.070312 L 82.03125 252.898438 L 89.0625 256.867188 L 121.875 272.726562 L 125.976562 274.992188 L 135.9375 279.804688 L 140.625 281.789062 L 256.054688 337.578125 L 260.742188 339.5625 L 272.460938 345.226562 L 278.90625 349.1875 L 283.59375 353.15625 L 287.695312 357.6875 L 290.625 363.632812 L 291.210938 366.75 L 291.210938 369.578125 L 290.039062 374.109375 L 286.523438 379.773438 L 281.835938 384.304688 L 276.5625 387.988281 L 270.117188 391.386719 L 264.84375 393.652344 L 256.640625 396.203125 L 248.4375 398.183594 L 240.234375 399.316406 L 234.375 399.882812 L 227.929688 400.164062 L 220.898438 400.164062 L 208.59375 399.316406 L 199.21875 397.898438 L 189.84375 395.632812 L 182.226562 393.085938 L 174.023438 389.6875 L 127.734375 367.3125 L 124.21875 367.597656 L 113.085938 369.578125 L 106.640625 370.148438 L 99.023438 370.148438 L 89.648438 369.296875 L 80.859375 367.597656 L 75 365.898438 L 69.726562 363.914062 L 65.039062 361.367188 L 59.765625 357.402344 L 56.25 353.4375 L 54.492188 349.1875 L 54.492188 344.375 L 56.835938 339.84375 L 61.523438 335.03125 L 66.210938 331.914062 L 73.242188 328.515625 L 80.859375 326.25 L 87.890625 324.835938 L 93.164062 324.265625 L 108.984375 324.265625 L 118.359375 325.398438 L 127.734375 327.664062 L 134.179688 330.214844 L 139.453125 333.046875 L 145.3125 337.859375 L 148.828125 342.675781 L 150 346.074219 L 150 348.339844 L 148.242188 352.585938 L 145.898438 355.984375 L 141.210938 360.234375 L 138.28125 363.066406 L 143.554688 365.898438 L 185.15625 386.007812 L 191.601562 388.554688 L 198.046875 390.539062 L 204.492188 391.953125 L 212.109375 393.085938 L 219.140625 393.652344 L 230.859375 393.652344 L 243.164062 392.234375 L 253.125 389.96875 L 260.742188 387.140625 L 264.84375 385.15625 L 270.117188 381.191406 L 274.21875 377.226562 L 276.5625 373.546875 L 277.734375 370.148438 L 277.734375 366.179688 L 275.390625 360.515625 L 271.875 356.269531 L 267.1875 352.585938 L 261.914062 349.472656 L 253.125 344.941406 L 239.648438 338.429688 L 234.960938 336.445312 L 191.601562 315.488281 L 187.5 313.222656 L 181.640625 310.671875 L 152.34375 296.515625 L 148.242188 294.25 L 135.351562 288.015625 L 130.664062 286.035156 L 76.171875 259.695312 L 72.070312 257.429688 L 66.210938 253.75 L 60.351562 248.9375 L 56.25 244.40625 L 52.148438 237.890625 L 49.804688 231.660156 L 49.804688 224.296875 L 52.148438 217.5 L 55.664062 211.554688 L 62.695312 204.472656 L 70.898438 198.523438 L 76.757812 195.410156 L 79.6875 193.710938 L 84.375 191.726562 L 91.992188 188.898438 L 102.539062 185.78125 L 110.742188 184.082031 L 121.875 182.382812 L 133.007812 181.25 Z M 140.039062 180.96875 "/>
<path style=" stroke:none;fill-rule:nonzero;fill:rgb(11.372549%,62.352941%,65.490196%);fill-opacity:1;" d="M 642.773438 281.21875 L 686.71875 281.21875 L 687.304688 286.882812 L 687.304688 324.265625 L 687.890625 343.523438 L 690.234375 345.789062 L 692.578125 346.640625 L 699.023438 347.207031 L 700.195312 348.339844 L 699.609375 348.625 L 659.179688 348.625 L 658.59375 340.410156 L 658.007812 338.429688 L 655.664062 341.257812 L 653.320312 343.808594 L 649.804688 346.074219 L 645.703125 348.054688 L 639.257812 349.472656 L 635.742188 349.757812 L 630.46875 349.757812 L 619.335938 348.625 L 612.304688 346.921875 L 605.273438 343.808594 L 601.171875 340.695312 L 597.65625 336.726562 L 595.3125 331.0625 L 595.3125 318.039062 L 597.65625 312.375 L 600.585938 308.691406 L 604.101562 305.859375 L 609.375 303.3125 L 615.820312 301.328125 L 619.921875 300.476562 L 622.851562 300.195312 L 631.054688 299.914062 L 636.914062 299.914062 L 642.1875 300.476562 L 648.046875 302.179688 L 653.320312 305.007812 L 658.007812 309.539062 L 658.59375 308.40625 L 658.59375 289.71875 L 658.007812 285.75 L 655.664062 284.335938 L 643.359375 281.789062 Z M 642.773438 281.21875 "/>
<path style=" stroke:none;fill-rule:nonzero;fill:rgb(11.372549%,62.352941%,65.490196%);fill-opacity:1;" d="M 312.304688 285.1875 L 362.695312 285.1875 L 365.039062 287.453125 L 370.898438 295.382812 L 380.273438 306.992188 L 390.820312 320.019531 L 397.851562 328.796875 L 400.195312 331.914062 L 401.367188 331.914062 L 410.15625 318.320312 L 420.117188 302.460938 L 427.148438 292.265625 L 430.078125 287.734375 L 431.835938 285.75 L 433.007812 285.1875 L 476.953125 285.1875 L 475.78125 286.320312 L 474.023438 286.601562 L 466.992188 286.601562 L 462.890625 287.453125 L 461.132812 288.867188 L 460.546875 293.679688 L 460.546875 342.109375 L 461.132812 346.359375 L 464.648438 346.921875 L 476.367188 347.207031 L 476.367188 348.339844 L 465.234375 348.625 L 442.96875 348.625 L 423.046875 348.339844 L 418.945312 348.054688 L 418.945312 347.207031 L 425.976562 346.640625 L 430.664062 345.507812 L 431.25 344.375 L 431.25 292.546875 L 430.664062 290.566406 L 421.289062 305.007812 L 408.984375 324.265625 L 401.953125 334.746094 L 397.265625 342.109375 L 393.164062 348.054688 L 390.820312 348.625 L 386.71875 348.625 L 383.789062 347.773438 L 375 336.726562 L 365.039062 323.984375 L 355.664062 312.089844 L 347.460938 301.609375 L 341.015625 293.679688 L 338.671875 291.414062 L 339.257812 346.640625 L 358.007812 347.207031 L 358.007812 348.054688 L 346.289062 348.339844 L 313.476562 348.054688 L 312.304688 347.773438 L 312.304688 347.207031 L 332.226562 346.640625 L 334.570312 346.359375 L 335.742188 344.941406 L 336.328125 290 L 332.8125 287.453125 L 329.296875 286.882812 L 313.476562 286.035156 L 312.304688 285.75 Z M 312.304688 285.1875 "/>
<path style=" stroke:none;fill-rule:nonzero;fill:rgb(11.372549%,62.352941%,65.882353%);fill-opacity:1;" d="M 912.890625 299.628906 L 926.367188 299.628906 L 936.914062 300.761719 L 946.289062 303.027344 L 950.976562 305.007812 L 954.492188 307.84375 L 956.25 310.671875 L 956.835938 313.789062 L 957.421875 340.976562 L 958.59375 345.226562 L 959.179688 346.359375 L 966.796875 347.207031 L 967.96875 348.339844 L 964.453125 348.625 L 929.296875 348.625 L 929.882812 340.695312 L 927.539062 341.828125 L 924.023438 344.65625 L 918.75 347.492188 L 912.890625 348.90625 L 906.445312 349.472656 L 897.65625 349.472656 L 890.039062 348.625 L 883.59375 346.640625 L 879.492188 344.65625 L 874.804688 340.695312 L 873.632812 338.710938 L 873.632812 332.765625 L 875.976562 329.082031 L 881.25 326.25 L 889.453125 323.984375 L 892.382812 323.417969 L 908.203125 322.285156 L 928.710938 322.285156 L 928.125 306.992188 L 926.367188 303.875 L 924.023438 302.179688 L 919.921875 301.328125 L 915.234375 301.328125 L 911.71875 302.460938 L 909.375 303.875 L 907.03125 306.992188 L 906.445312 308.691406 L 905.859375 314.921875 L 904.6875 315.203125 L 890.039062 314.355469 L 885.351562 313.222656 L 881.835938 311.242188 L 880.664062 309.824219 L 880.664062 307.273438 L 883.59375 305.007812 L 888.867188 302.742188 L 896.484375 301.046875 L 902.929688 300.195312 Z M 912.890625 299.628906 "/>
<path style=" stroke:none;fill-rule:nonzero;fill:rgb(11.372549%,62.352941%,65.490196%);fill-opacity:1;" d="M 1118.554688 299.628906 L 1127.929688 299.628906 L 1137.304688 300.476562 L 1144.921875 301.894531 L 1151.367188 303.875 L 1156.054688 305.859375 L 1160.15625 308.691406 L 1164.257812 313.222656 L 1166.015625 317.1875 L 1166.601562 319.734375 L 1166.601562 323.417969 L 1106.835938 323.703125 L 1107.421875 330.214844 L 1109.179688 337.296875 L 1112.109375 342.109375 L 1116.210938 345.507812 L 1122.070312 347.207031 L 1126.757812 348.054688 L 1133.789062 348.054688 L 1140.820312 346.921875 L 1146.09375 345.226562 L 1150.195312 342.960938 L 1153.125 340.125 L 1154.882812 337.296875 L 1155.46875 335.03125 L 1157.8125 334.746094 L 1160.742188 336.445312 L 1162.5 338.710938 L 1161.328125 341.828125 L 1157.8125 344.375 L 1152.539062 346.359375 L 1146.679688 347.773438 L 1135.546875 349.1875 L 1133.203125 349.472656 L 1120.898438 349.472656 L 1108.59375 348.339844 L 1099.804688 346.640625 L 1093.359375 344.375 L 1088.085938 341.542969 L 1083.398438 337.578125 L 1080.46875 333.898438 L 1078.710938 329.929688 L 1078.125 327.382812 L 1078.125 323.703125 L 1079.296875 317.46875 L 1081.640625 313.222656 L 1086.328125 308.691406 L 1090.429688 306.140625 L 1092.773438 304.726562 L 1099.804688 302.179688 L 1106.25 300.761719 L 1113.867188 299.914062 Z M 1118.554688 299.628906 "/>
<path style=" stroke:none;fill-rule:nonzero;fill:rgb(11.372549%,62.352941%,65.490196%);fill-opacity:1;" d="M 532.617188 299.628906 L 541.40625 299.628906 L 550.195312 300.476562 L 557.8125 301.894531 L 564.84375 304.160156 L 570.117188 306.425781 L 574.21875 309.539062 L 577.734375 314.070312 L 578.90625 316.90625 L 579.492188 320.019531 L 579.492188 323.703125 L 519.140625 323.417969 L 520.3125 331.914062 L 522.070312 337.578125 L 525 342.109375 L 529.101562 345.226562 L 533.789062 347.207031 L 539.0625 348.339844 L 546.09375 348.339844 L 552.539062 347.207031 L 558.398438 345.507812 L 562.5 343.242188 L 565.429688 340.410156 L 567.773438 336.164062 L 568.359375 334.746094 L 571.289062 335.03125 L 574.804688 337.859375 L 575.390625 338.429688 L 575.390625 340.410156 L 572.460938 343.242188 L 568.945312 345.226562 L 562.5 347.207031 L 556.054688 348.339844 L 546.09375 349.472656 L 534.960938 349.472656 L 522.070312 348.339844 L 515.039062 347.207031 L 507.421875 344.65625 L 501.5625 341.828125 L 496.875 338.144531 L 493.945312 334.746094 L 492.1875 331.347656 L 491.015625 327.382812 L 491.015625 321.71875 L 493.359375 315.203125 L 496.875 310.390625 L 500.976562 307.273438 L 506.25 304.445312 L 512.695312 302.179688 L 519.726562 300.761719 L 527.34375 299.914062 Z M 532.617188 299.628906 "/>
<path style=" stroke:none;fill-rule:nonzero;fill:rgb(99.607843%,99.607843%,99.215686%);fill-opacity:1;" d="M 97.851562 330.5 L 106.054688 330.5 L 113.085938 331.0625 L 121.289062 333.046875 L 127.148438 335.59375 L 131.25 337.859375 L 135.351562 341.828125 L 136.523438 343.808594 L 137.109375 347.773438 L 135.351562 352.023438 L 132.421875 355.421875 L 127.148438 358.820312 L 120.703125 361.367188 L 113.085938 363.066406 L 108.984375 363.632812 L 104.296875 363.914062 L 96.679688 363.914062 L 88.476562 362.78125 L 82.03125 361.085938 L 75 357.96875 L 70.898438 355.136719 L 67.96875 352.023438 L 66.796875 349.472656 L 66.796875 345.226562 L 68.554688 341.828125 L 72.65625 337.859375 L 77.929688 335.03125 L 83.203125 333.046875 L 91.992188 331.0625 Z M 97.851562 330.5 "/>
<path style=" stroke:none;fill-rule:nonzero;fill:rgb(11.372549%,62.352941%,65.882353%);fill-opacity:1;" d="M 1040.039062 299.914062 L 1050.585938 299.914062 L 1057.617188 300.761719 L 1063.476562 302.742188 L 1066.40625 305.007812 L 1067.578125 306.992188 L 1066.992188 309.539062 L 1064.648438 312.089844 L 1059.960938 314.070312 L 1051.757812 315.773438 L 1045.898438 316.054688 L 1043.554688 315.488281 L 1042.96875 310.109375 L 1040.625 306.425781 L 1038.28125 305.007812 L 1036.523438 304.445312 L 1032.421875 304.445312 L 1028.320312 305.578125 L 1024.804688 307.558594 L 1021.875 311.242188 L 1021.289062 313.507812 L 1021.289062 341.542969 L 1022.460938 344.65625 L 1024.21875 346.359375 L 1024.21875 346.921875 L 1039.453125 347.492188 L 1039.453125 348.054688 L 1037.109375 348.339844 L 1027.148438 348.625 L 988.476562 348.625 L 979.101562 348.339844 L 979.101562 347.492188 L 986.71875 346.640625 L 991.40625 345.226562 L 991.992188 343.242188 L 991.992188 305.007812 L 988.476562 303.59375 L 978.515625 301.046875 L 978.515625 300.761719 L 1020.117188 300.761719 L 1020.703125 301.046875 L 1021.289062 307.273438 L 1021.875 307.558594 L 1025.390625 304.160156 L 1029.492188 302.179688 L 1037.109375 300.195312 Z M 1040.039062 299.914062 "/>
<path style=" stroke:none;fill-rule:nonzero;fill:rgb(11.372549%,62.352941%,65.490196%);fill-opacity:1;" d="M 817.96875 299.628906 L 828.515625 299.628906 L 841.40625 300.761719 L 850.78125 303.027344 L 854.296875 304.445312 L 857.8125 307.273438 L 858.398438 310.109375 L 856.640625 312.65625 L 853.125 314.640625 L 847.265625 316.054688 L 837.304688 317.1875 L 835.546875 317.1875 L 833.789062 308.40625 L 832.03125 305.007812 L 828.515625 302.179688 L 826.171875 301.328125 L 818.554688 301.328125 L 813.28125 303.3125 L 809.179688 307.273438 L 807.421875 310.957031 L 806.25 318.039062 L 806.25 329.082031 L 807.421875 335.878906 L 809.765625 340.976562 L 813.28125 344.375 L 816.796875 346.359375 L 823.242188 348.339844 L 829.6875 348.339844 L 836.71875 347.492188 L 842.578125 345.789062 L 847.265625 343.242188 L 850.78125 339.5625 L 853.125 335.3125 L 854.296875 335.03125 L 857.226562 336.164062 L 859.570312 338.992188 L 858.984375 340.976562 L 856.640625 343.242188 L 851.367188 345.789062 L 845.507812 347.492188 L 839.0625 348.625 L 832.03125 349.472656 L 827.929688 349.757812 L 819.726562 349.757812 L 808.59375 348.90625 L 800.976562 347.492188 L 794.53125 345.507812 L 787.5 342.390625 L 783.398438 339.277344 L 780.46875 335.878906 L 778.125 331.347656 L 777.539062 329.082031 L 777.539062 321.152344 L 778.710938 316.335938 L 781.640625 311.804688 L 785.742188 307.84375 L 791.015625 305.007812 L 795.703125 303.027344 L 803.90625 301.046875 L 813.28125 299.914062 Z M 817.96875 299.628906 "/>
<path style=" stroke:none;fill-rule:nonzero;fill:rgb(11.372549%,62.352941%,65.490196%);fill-opacity:1;" d="M 707.8125 300.476562 L 731.835938 300.761719 L 751.171875 301.046875 L 751.757812 339.5625 L 752.34375 343.523438 L 754.101562 346.359375 L 765.820312 347.492188 L 765.820312 348.054688 L 764.0625 348.339844 L 756.445312 348.625 L 722.460938 348.625 L 708.398438 348.339844 L 708.984375 347.207031 L 715.429688 346.921875 L 718.945312 346.074219 L 721.875 344.941406 L 722.460938 344.09375 L 723.046875 338.992188 L 723.046875 328.515625 L 722.460938 305.292969 L 717.773438 303.3125 L 708.398438 301.894531 L 707.226562 300.761719 Z M 707.8125 300.476562 "/>
<path style=" stroke:none;fill-rule:nonzero;fill:rgb(99.607843%,99.607843%,99.215686%);fill-opacity:1;" d="M 640.429688 302.179688 L 643.945312 302.742188 L 648.632812 304.445312 L 652.734375 306.710938 L 656.835938 310.109375 L 658.59375 316.90625 L 658.59375 330.78125 L 656.835938 337.859375 L 652.148438 342.675781 L 647.460938 345.507812 L 643.945312 346.921875 L 638.085938 347.207031 L 634.570312 346.074219 L 630.46875 343.808594 L 628.125 341.542969 L 625.195312 337.011719 L 623.4375 331.632812 L 622.851562 327.382812 L 622.851562 322.851562 L 624.023438 314.355469 L 625.78125 309.539062 L 628.125 306.425781 L 631.640625 304.160156 L 636.328125 302.742188 Z M 640.429688 302.179688 "/>
<path style=" stroke:none;fill-rule:nonzero;fill:rgb(61.568627%,75.686275%,33.333333%);fill-opacity:1;" d="M 432.421875 361.933594 L 454.101562 361.933594 L 459.960938 362.78125 L 464.648438 364.484375 L 468.75 367.03125 L 471.09375 370.148438 L 471.679688 371.84375 L 471.679688 376.375 L 469.335938 379.773438 L 464.648438 382.609375 L 458.789062 384.304688 L 452.929688 385.15625 L 446.484375 385.4375 L 440.625 385.4375 L 433.007812 385.15625 L 432.421875 372.695312 Z M 432.421875 361.933594 "/>
<path style=" stroke:none;fill-rule:nonzero;fill:rgb(61.568627%,75.686275%,33.333333%);fill-opacity:1;" d="M 320.507812 361.648438 L 333.984375 361.648438 L 335.15625 361.933594 L 343.359375 376.945312 L 343.945312 379.773438 L 345.117188 379.773438 L 345.703125 378.359375 L 349.804688 371.5625 L 355.078125 361.933594 L 355.664062 361.648438 L 366.210938 361.648438 L 370.898438 361.933594 L 370.898438 369.863281 L 370.3125 381.191406 L 369.726562 385.4375 L 361.523438 385.4375 L 360.9375 368.164062 L 360.351562 365.898438 L 358.007812 369.863281 L 353.320312 378.359375 L 349.804688 384.304688 L 348.046875 385.4375 L 340.429688 385.4375 L 338.085938 380.90625 L 332.8125 372.414062 L 329.882812 367.882812 L 329.296875 373.546875 L 328.710938 385.15625 L 328.125 385.4375 L 319.335938 385.4375 L 319.921875 361.933594 Z M 320.507812 361.648438 "/>
<path style=" stroke:none;fill-rule:nonzero;fill:rgb(61.568627%,75.686275%,33.333333%);fill-opacity:1;" d="M 812.109375 361.367188 L 814.453125 361.933594 L 818.554688 364.765625 L 829.101562 374.394531 L 832.617188 377.792969 L 833.789062 378.640625 L 834.375 375.8125 L 834.960938 364.484375 L 835.546875 361.648438 L 843.75 361.648438 L 844.335938 371.84375 L 844.335938 376.09375 L 843.75 384.875 L 843.164062 385.4375 L 837.890625 385.722656 L 833.203125 385.4375 L 827.34375 380.058594 L 820.3125 374.109375 L 813.867188 369.015625 L 813.28125 385.4375 L 804.492188 385.4375 L 803.90625 376.945312 L 803.90625 361.933594 L 804.492188 361.648438 Z M 812.109375 361.367188 "/>
<path style=" stroke:none;fill-rule:nonzero;fill:rgb(99.607843%,99.607843%,99.215686%);fill-opacity:1;" d="M 533.203125 301.046875 L 539.648438 301.046875 L 543.164062 301.894531 L 546.09375 303.59375 L 549.023438 306.992188 L 550.78125 312.089844 L 551.367188 317.1875 L 551.367188 322 L 550.78125 322.285156 L 519.140625 322.285156 L 519.140625 317.1875 L 520.898438 309.824219 L 523.242188 306.140625 L 526.171875 303.59375 L 530.273438 301.609375 Z M 533.203125 301.046875 "/>
<path style=" stroke:none;fill-rule:nonzero;fill:rgb(99.607843%,99.607843%,99.215686%);fill-opacity:1;" d="M 1119.726562 301.046875 L 1126.171875 301.046875 L 1130.859375 302.179688 L 1134.375 304.726562 L 1136.71875 308.40625 L 1138.476562 315.203125 L 1139.0625 319.171875 L 1139.0625 322 L 1138.476562 322.285156 L 1106.835938 322.285156 L 1106.25 322 L 1106.835938 314.921875 L 1108.007812 309.824219 L 1110.351562 305.859375 L 1113.867188 303.3125 L 1118.554688 301.328125 Z M 1119.726562 301.046875 "/>
<path style=" stroke:none;fill-rule:nonzero;fill:rgb(99.607843%,99.607843%,99.215686%);fill-opacity:1;" d="M 919.921875 323.417969 L 927.539062 323.417969 L 928.710938 323.703125 L 928.710938 336.726562 L 927.539062 339.5625 L 922.265625 343.808594 L 917.578125 346.074219 L 914.648438 346.921875 L 910.546875 346.921875 L 907.03125 346.074219 L 903.515625 343.808594 L 901.757812 340.410156 L 901.171875 337.859375 L 901.171875 333.898438 L 902.34375 329.929688 L 904.6875 327.101562 L 908.789062 324.835938 L 911.71875 323.984375 Z M 919.921875 323.417969 "/>
<path style=" stroke:none;fill-rule:nonzero;fill:rgb(61.568627%,75.686275%,33.333333%);fill-opacity:1;" d="M 584.765625 361.367188 L 587.695312 361.648438 L 590.625 364.484375 L 601.171875 378.640625 L 605.273438 384.589844 L 605.273438 385.4375 L 597.070312 385.4375 L 595.898438 384.589844 L 594.140625 380.90625 L 573.046875 380.625 L 571.875 383.171875 L 570.117188 384.875 L 568.945312 385.4375 L 561.328125 385.4375 L 566.601562 378.640625 L 577.734375 362.78125 L 579.492188 361.648438 Z M 584.765625 361.367188 "/>
<path style=" stroke:none;fill-rule:nonzero;fill:rgb(61.568627%,75.686275%,33.333333%);fill-opacity:1;" d="M 385.546875 361.648438 L 416.015625 361.648438 L 418.359375 361.933594 L 418.359375 365.898438 L 417.773438 366.179688 L 395.507812 366.179688 L 395.507812 371.5625 L 408.984375 371.28125 L 416.015625 371.28125 L 416.601562 371.5625 L 416.601562 375.527344 L 394.921875 375.8125 L 394.921875 381.476562 L 418.359375 381.476562 L 418.359375 385.15625 L 394.335938 385.4375 L 386.132812 385.15625 L 385.546875 371.84375 Z M 385.546875 361.648438 "/>
<path style=" stroke:none;fill-rule:nonzero;fill:rgb(61.176471%,75.294118%,33.333333%);fill-opacity:1;" d="M 954.492188 361.085938 L 960.9375 361.367188 L 966.796875 362.5 L 972.65625 365.046875 L 975.585938 367.3125 L 974.414062 368.445312 L 972.070312 369.015625 L 968.554688 368.730469 L 963.867188 366.75 L 960.9375 365.617188 L 959.179688 365.332031 L 953.90625 365.332031 L 950.390625 366.179688 L 948.632812 367.3125 L 948.632812 369.296875 L 950.390625 370.148438 L 953.90625 370.710938 L 963.867188 371.5625 L 969.726562 372.695312 L 973.242188 374.109375 L 975.585938 375.8125 L 976.757812 377.792969 L 976.171875 380.625 L 973.242188 382.890625 L 968.554688 384.875 L 963.867188 385.722656 L 955.078125 385.722656 L 948.046875 384.589844 L 942.773438 382.890625 L 939.257812 380.90625 L 937.5 378.925781 L 938.085938 377.507812 L 941.015625 377.226562 L 944.53125 378.078125 L 950.390625 380.625 L 956.25 381.757812 L 961.523438 382.039062 L 965.625 381.191406 L 967.96875 379.492188 L 967.96875 377.507812 L 964.453125 376.09375 L 952.148438 374.394531 L 945.703125 373.261719 L 942.1875 372.128906 L 939.84375 370.429688 L 939.257812 368.164062 L 941.015625 365.332031 L 946.289062 362.5 L 951.5625 361.367188 Z M 954.492188 361.085938 "/>
<path style=" stroke:none;fill-rule:nonzero;fill:rgb(61.176471%,75.294118%,33.333333%);fill-opacity:1;" d="M 901.171875 361.367188 L 909.375 361.367188 L 915.234375 362.21875 L 918.75 363.351562 L 923.4375 365.898438 L 925.78125 368.445312 L 925.78125 369.578125 L 921.679688 369.578125 L 918.164062 369.015625 L 913.476562 366.75 L 908.789062 365.617188 L 901.757812 365.617188 L 897.070312 366.75 L 893.554688 369.015625 L 891.796875 371.28125 L 891.210938 374.679688 L 892.96875 378.078125 L 898.242188 380.90625 L 902.34375 381.757812 L 908.203125 382.039062 L 912.890625 380.90625 L 918.75 377.792969 L 922.265625 377.507812 L 924.609375 377.792969 L 925.195312 379.492188 L 922.851562 381.757812 L 918.75 384.023438 L 914.0625 385.15625 L 909.960938 385.722656 L 901.757812 385.722656 L 894.140625 384.589844 L 888.867188 382.609375 L 884.765625 379.773438 L 882.421875 376.660156 L 882.421875 370.996094 L 884.765625 367.597656 L 888.28125 365.046875 L 893.554688 362.78125 L 898.242188 361.648438 Z M 901.171875 361.367188 "/>
<path style=" stroke:none;fill-rule:nonzero;fill:rgb(61.176471%,75.294118%,33.333333%);fill-opacity:1;" d="M 700.195312 361.367188 L 708.984375 361.367188 L 714.84375 362.21875 L 719.53125 363.914062 L 723.046875 365.898438 L 724.804688 367.597656 L 724.804688 369.296875 L 721.875 369.578125 L 717.1875 369.578125 L 713.671875 367.03125 L 710.15625 365.898438 L 703.710938 365.617188 L 697.851562 366.464844 L 694.335938 367.882812 L 691.992188 370.148438 L 690.820312 372.414062 L 690.820312 375.527344 L 692.578125 378.359375 L 694.921875 380.058594 L 698.4375 381.476562 L 702.539062 382.039062 L 708.398438 382.039062 L 713.085938 380.90625 L 718.359375 377.792969 L 719.53125 377.507812 L 723.046875 377.507812 L 724.21875 378.925781 L 721.875 381.757812 L 718.359375 383.742188 L 711.328125 385.4375 L 708.398438 385.722656 L 700.78125 385.722656 L 694.335938 384.589844 L 689.648438 383.171875 L 685.546875 381.191406 L 682.617188 378.359375 L 681.445312 376.09375 L 681.445312 371.5625 L 683.203125 368.164062 L 686.71875 365.332031 L 689.0625 363.914062 L 694.335938 362.21875 Z M 700.195312 361.367188 "/>
<path style=" stroke:none;fill-rule:nonzero;fill:rgb(61.568627%,75.686275%,33.333333%);fill-opacity:1;" d="M 529.6875 361.367188 L 537.890625 361.648438 L 543.75 362.78125 L 546.679688 363.914062 L 550.78125 366.75 L 551.953125 368.164062 L 551.953125 369.578125 L 544.335938 369.296875 L 540.234375 366.75 L 535.546875 365.617188 L 527.929688 365.617188 L 522.65625 367.03125 L 519.726562 369.015625 L 517.96875 371.84375 L 517.96875 375.527344 L 520.3125 378.640625 L 523.828125 380.90625 L 528.515625 382.039062 L 536.132812 382.039062 L 541.40625 380.34375 L 544.921875 377.507812 L 551.953125 377.507812 L 552.539062 378.359375 L 549.023438 381.757812 L 545.507812 383.742188 L 539.648438 385.4375 L 537.304688 385.722656 L 527.34375 385.722656 L 520.3125 384.304688 L 515.625 382.609375 L 511.523438 379.773438 L 509.179688 377.226562 L 508.59375 376.09375 L 508.59375 371.5625 L 510.351562 368.445312 L 513.28125 365.898438 L 518.554688 363.351562 L 523.828125 361.933594 Z M 529.6875 361.367188 "/>
<path style=" stroke:none;fill-rule:nonzero;fill:rgb(99.607843%,99.607843%,99.215686%);fill-opacity:1;" d="M 441.210938 366.179688 L 456.445312 366.179688 L 459.375 367.03125 L 461.71875 369.296875 L 462.890625 371.5625 L 462.890625 376.375 L 461.132812 378.925781 L 456.445312 380.90625 L 453.515625 381.476562 L 442.382812 381.476562 L 441.796875 381.191406 L 441.210938 378.925781 Z M 441.210938 366.179688 "/>
<path style=" stroke:none;fill-rule:nonzero;fill:rgb(61.568627%,75.686275%,33.333333%);fill-opacity:1;" d="M 617.578125 361.367188 L 626.367188 361.933594 L 626.953125 362.21875 L 626.367188 381.476562 L 646.875 381.476562 L 646.875 385.15625 L 642.1875 385.4375 L 617.578125 385.4375 L 616.992188 369.863281 L 616.992188 361.648438 Z M 617.578125 361.367188 "/>
<path style=" stroke:none;fill-rule:nonzero;fill:rgb(61.568627%,75.686275%,33.333333%);fill-opacity:1;" d="M 739.453125 361.648438 L 744.726562 361.648438 L 748.242188 361.933594 L 748.242188 380.90625 L 751.171875 381.191406 L 768.164062 381.476562 L 768.75 385.15625 L 766.40625 385.4375 L 741.210938 385.4375 L 739.453125 384.589844 L 738.867188 372.128906 L 738.867188 361.933594 Z M 739.453125 361.648438 "/>
<path style=" stroke:none;fill-rule:nonzero;fill:rgb(11.764706%,62.352941%,65.490196%);fill-opacity:1;" d="M 734.179688 280.085938 L 739.453125 280.371094 L 744.140625 281.789062 L 747.65625 283.769531 L 749.414062 286.320312 L 748.828125 288.867188 L 745.3125 291.414062 L 740.039062 292.832031 L 737.695312 293.117188 L 732.421875 293.117188 L 728.320312 291.984375 L 724.804688 290 L 723.046875 287.453125 L 723.632812 284.617188 L 725.976562 282.636719 L 730.664062 280.65625 Z M 734.179688 280.085938 "/>
<path style=" stroke:none;fill-rule:nonzero;fill:rgb(61.568627%,75.686275%,33.333333%);fill-opacity:1;" d="M 860.15625 361.648438 L 868.359375 361.648438 L 868.945312 361.933594 L 868.945312 385.4375 L 859.570312 385.4375 L 859.570312 361.933594 Z M 860.15625 361.648438 "/>
<path style=" stroke:none;fill-rule:nonzero;fill:rgb(61.568627%,75.686275%,33.333333%);fill-opacity:1;" d="M 486.328125 361.648438 L 494.53125 361.648438 L 494.53125 385.15625 L 493.945312 385.4375 L 485.742188 385.4375 L 485.15625 380.058594 L 484.570312 361.933594 Z M 486.328125 361.648438 "/>
<path style=" stroke:none;fill-rule:nonzero;fill:rgb(61.568627%,75.686275%,33.333333%);fill-opacity:1;" d="M 780.46875 361.648438 L 789.84375 361.648438 L 789.84375 377.792969 L 789.257812 385.4375 L 781.054688 385.4375 L 780.46875 370.710938 Z M 780.46875 361.648438 "/>
<path style=" stroke:none;fill-rule:nonzero;fill:rgb(99.607843%,99.607843%,99.215686%);fill-opacity:1;" d="M 582.421875 366.464844 L 584.179688 367.597656 L 587.695312 371.5625 L 590.625 375.527344 L 590.625 376.375 L 576.5625 376.375 L 580.078125 370.429688 Z M 582.421875 366.464844 "/>
</g>
</svg>
