<?xml version="1.0" encoding="UTF-8"?>
<svg version="1.1" viewBox="0 0 2000 2000" width="1280" height="1280" xmlns="http://www.w3.org/2000/svg">
<path transform="translate(0)" d="m0 0h2e3v2e3h-2e3z" fill="#FEFEFE"/>
<path transform="translate(406,723)" d="m0 0h22l19 3 18 6 16 8 11 7 13 11 40 40 1 2 4-1 11-12 7-6 5-6 7-6 18-18 17-12 15-8 15-5 17-3h28l17 3 17 6 19 10 13 10 9 8 9 11 7 11 8 16 5 15 3 16v28l-3 17-6 17-9 17-9 12-11 13-15 15-7 4h-67l-6-8-12-22-4-2-7 10-20 39-11 23-6 10-2 2-6 1-8-13-8-14-5-6-5 1-9 15-6 11-4 5-6 1-6-9-29-58-9-16-1-3-6 4-5 7-7 14-6 7-5 1h-54l-3-4 1-10 1-2 52-1 2-6 21-41 4-5 4-1 6 7 18 35 18 36 5 8 4-1 9-14 10-18 3-3 4 1 6 9 10 18 6 9h2l13-23 30-60 3-3h5l5 6 12 23 10 20 1 3h48l7-1 17-17 10-13 8-13 7-18 3-13 1-11v-14l-2-14-5-16-8-16-8-12-6-6v-2l-4-2-8-7-13-8-10-5-16-5-6-1h-33l-15 3-11 4-13 7-12 9-10 9-3 3h-2l-2 4-20 20-8 7-11 11-4 3h-5l-12-11-43-43-13-10-12-7-16-6-14-3h-34l-16 4-15 6-11 7-10 8-10 10-10 15-8 17-4 14-2 13v16l4 20 7 19 7 12 8 10 9 10 231 231 9 14 6 14 3 12 1 7v13l-3 16-5 14-8 13-9 10-9 8-15 9-13 5-13 2h-17l-16-3-13-5-12-7-11-9-60-60-7 1-17 5h-17l-12-3-12-6-10-9-6-7-7-12-4-14v-18l4-13 5-10 7-9 9-8 14-7 13-3h13l10 2 13 5 12 9 8 10 8 15 3 10 1 9-2 13-5 13-7 12 1 5 11 12 45 45 10 8 14 8 10 3 7 1h14l18-4 15-8 12-11 7-10 6-14 2-9v-19l-4-15-6-12-8-10-15-16-51-51-6-5-7-8-158-158-10-13-6-10-7-17-5-20-2-14v-11l3-20 5-17 10-20 7-10 11-13 3-3h2v-2l16-12 17-9 18-6z" fill="#8FC44F"/>
<path transform="translate(1039,982)" d="m0 0h55l1 8 1 155 3 5 12 3v3l-16 1h-34l-1-1-1-18-1-6-4 10-6 8-6 5-9 4h-14l-13-4-9-6-8-9-5-10-3-9-2-19v-15l2-19 5-15 6-8 8-8 11-5 4-1h20l12 6 7 8 4 8v-58l-3-5-15-6z" fill="#1FA3A7"/>
<path transform="translate(628,992)" d="m0 0h61l3 5 6 17 20 52 15 38 3 8 2 1 4-16 9-29 9-30 12-36 4-9 37-1h17l2 1v2l-2 1-14 1-3 3-1 10v134l1 7 16 1 3 1-1 3-27 1-41-1-5-1v-2l12-2 3-2 1-3v-137l-9 28-20 64-17 54-1 1h-10l-4-6-11-30-10-26-11-29-15-40-6-14v140l24 2-1 3h-53l-4-1v-2l7-1 18-1 3-2 1-4 1-139-4-7-3-2-17-1-6-1v-2z" fill="#1EA3A7"/>
<path transform="translate(1376,1030)" d="m0 0h20l15 4 10 6 6 7 4 9 1 4 1 81 1 9 11 3 1 3-15 1h-28l-7-2v-17l-5 9-7 7-10 4-5 1h-14l-10-4-10-8-6-10-2-10v-9l2-10 6-8 11-7 12-3 16-2h22v-27l-1-16-3-6-5-4h-8l-5 3-4 9-1 6-1 16-3 1-18-2-5-3-4-5-2-4 1-8 3-5 7-6 13-5z" fill="#1EA3A7"/>
<path transform="translate(1634,1030)" d="m0 0h13l14 3 12 6 10 9 7 12 3 11 2 20-1 1h-74l1 26 3 16 6 12 5 5 6 3 11 1 11-4 6-4 6-8 4-13 1-5 4 1 4 4 1 8-2 7-6 7-12 7-15 4h-18l-18-4-10-5-10-9-6-8-5-12-3-12v-30l3-13 7-14 9-10 8-6 10-4z" fill="#20A3A6"/>
<path transform="translate(902,1030)" d="m0 0h10l11 2 9 3 12 8 7 7 6 13 3 12v17h-74v15l3 23 4 11 6 8 5 4 5 2h11l12-5 8-9 4-11 1-7 3-2 4 2 3 6v8l-6 9-10 7-18 6h-18l-16-3-14-7-10-9-6-9-5-13-3-17v-13l4-22 4-10 7-10 7-6 8-5 9-3z" fill="#1FA3A6"/>
<path transform="translate(801,992)" d="m0 0h29l2 1v2l-2 1-14 1-3 3-1 10v134l1 7 16 1 3 1-1 3-27 1-41-1-5-1v-2l12-2 3-2 1-3v-137l-2 2h-2l3-12 3-6z" fill="#1EA3A7"/>
<path transform="translate(1542,1030)" d="m0 0 12 1 8 4 7 8 1 3v9l-3 7-7 6-11 4h-8l-1-1-1-16-5-10-4-3-7 1-6 7-3 7-1 6v79l3 8 6 2 13 1v2l-2 1-33 1h-18l-23-1v-3l12-3 3-2 1-4v-102l-5-2-11-5v-2h53l1 16 5-8 8-7 8-3z" fill="#1FA3A6"/>
<path transform="translate(355,1110)" d="m0 0h16l10 3 11 7 7 8 5 10 2 7v16l-4 11-7 11-11 8-10 4-5 1h-15l-11-4-9-6-7-8-6-12-1-4v-18l4-11 6-8 8-8 10-5z" fill="#FEFEFE"/>
<path transform="translate(1259,1030)" d="m0 0h14l15 3 9 4 8 7 3 5v13l-6 7-12 5-10 1-1-5-2-20-3-9-4-5-2-1h-8l-7 4-4 6-3 10-1 7-1 18v27l2 22 3 10 5 8 7 6 4 2h11l14-7 6-7 4-12 2-7 5 2 3 6v7l-6 9-10 7-10 4-8 2h-20l-17-4-12-7-9-9-6-12-3-10-1-7v-33l3-13 7-14 6-7 11-7 10-4z" fill="#1EA3A7"/>
<path transform="translate(1121,1032)" d="m0 0 54 1 1 108 2 7 4 3 11 2v3l-18 1h-34l-20-1v-3l11-2 5-4 1-2 1-14-1-87-6-5-10-3-2-3z" fill="#1EA3A7"/>
<path transform="translate(1033,1037)" d="m0 0h6l9 6 7 11 2 4 2 20v29l-2 23-9 16-7 6h-9l-6-4-5-8-4-15-2-16v-30l2-18 3-12 4-6 6-5z" fill="#FEFEFE"/>
<path transform="translate(777,1190)" d="m0 0h16l16 2 9 6 6 10 2 8v11l-3 10-7 8-8 5-7 2-16 1-8-1-1-1v-60z" fill="#90C54F"/>
<path transform="translate(636,1190)" d="m0 0h17l3 3 10 38v2l2-1 10-37 2-5h16l4 2-1 55-1 5h-10l-1-1-1-44-3 9-10 36-11 1-2-2-4-17-5-18-2-6-2 41-6 2h-6v-62z" fill="#90C54F"/>
<path transform="translate(1242,1190)" d="m0 0h12l6 9 11 20 6 12h1l1-40 1-1h10l2 2-1 59-4 2h-7l-3-1-11-20-12-19-1 39h-12l-1-3v-58z" fill="#90C54F"/>
<path transform="translate(901,1034)" d="m0 0h10l5 3 4 6 3 11 1 7 1 26-5 2h-33l-2-1v-14l2-18 3-10 4-6z" fill="#FEFEFE"/>
<path transform="translate(1635,1034)" d="m0 0h8l6 3 5 6 3 12 2 20v13l-23 1h-16l-1-1 1-26 3-14 4-8z" fill="#FEFEFE"/>
<path transform="translate(959,1190)" d="m0 0h12l3 5 15 43 3 10v4h-9l-3-3-2-9-25 1-4 10-6 2h-6l1-6 4-9 16-47z" fill="#8FC44F"/>
<path transform="translate(718,1190)" d="m0 0h37l5 2-1 9-1 1-27 1v12l26 1v9l-1 2h-26v14h29v10l-1 1h-40l-1-9v-52z" fill="#90C54F"/>
<path transform="translate(1393,1091)" d="m0 0 3 1 1 5-1 32-3 8-7 10-5 4-7 1-6-3-4-8-1-7v-21l3-12 5-6 6-3z" fill="#FEFEFE"/>
<path transform="translate(1425,1189)" d="m0 0h11l10 4 8 8 2 6-2 2-6 1-5-3-7-6h-10l-3 2v7l6 3 17 4 7 5 4 7v10l-6 9-7 4-4 1h-11l-11-4-7-6-3-5v-6l1-1 9 1 7 8 6 2h8l4-2 2-4-1-5-4-3-19-5-9-6-2-3-1-7 4-10 7-6z" fill="#90C54F"/>
<path transform="translate(895,1189)" d="m0 0h9l10 3 9 8 3 5v5l-10 1-5-6-6-3h-10l-8 6-3 8v11l3 7 5 6 5 2h8l6-2 2-7 7-2h6l1 4-6 10-7 6-6 2h-13l-10-4-8-7-5-10-1-4v-12l3-10 6-9 9-6z" fill="#90C54F"/>
<path transform="translate(1110,1189)" d="m0 0h12l8 3 8 7 4 6v6h-11l-6-8-5-2-9 1-6 4-4 7-1 4v10l3 7 4 5 7 3h8l5-3 5-7 6-1 4 2-3 9-6 7-7 3-5 1h-8l-10-3-6-4-6-7-4-13v-10l3-11 7-9 9-6z" fill="#90C54F"/>
<path transform="translate(1361,1189)" d="m0 0h11l9 3 10 9 2 4v6l-10-1-8-7-4-2h-7l-6 3h-2l-2 4-3 7v13l4 8 5 4 6 2 8-1 5-4 3-5h11l-1 7-6 8-8 5-4 1h-11l-9-3-8-6-6-9-2-6v-15l4-10 6-8 7-5z" fill="#90C54F"/>
<path transform="translate(1007,1190)" d="m0 0h7l5 1 1 2-1 48h23l3 1v9l-1 1h-37z" fill="#90C54F"/>
<path transform="translate(1160,1190)" d="m0 0h8l3 1v50h25l1 1v9l-1 1h-36l-1-2v-59z" fill="#90C54F"/>
<path transform="translate(790,1201)" d="m0 0 17 2 4 4 3 10v13l-4 7-4 3-12 2-6-1v-38z" fill="#FEFEFE"/>
<path transform="translate(1151,980)" d="m0 0h9l7 4 5 7v11l-4 6-5 4-3 1h-9l-6-3-4-5-1-3v-12l5-7z" fill="#1FA3A6"/>
<path transform="translate(848,1190)" d="m0 0h6l1 1v55l-1 6h-12l-1-23v-38z" fill="#90C54F"/>
<path transform="translate(1310,1190)" d="m0 0h11l2 5v55l-1 2h-12z" fill="#90C54F"/>
<path transform="translate(1211,1190)" d="m0 0h11l2 1v18l-1 43h-11l-1-1z" fill="#90C54F"/>
<path transform="translate(657,1007)" d="m0 0 3 3v141l24 2-1 3h-53l-4-1v-2l7-1 18-1 3-2 1-4 1-134z" fill="#3CAC8F"/>
<path transform="translate(771,1010)" d="m0 0h1l-1 8-18 57-12 39-3-1 4-16 9-29 9-30 9-26z" fill="#34A996"/>
<path transform="translate(964,1206)" d="m0 0 3 2 6 18v3h-16l2-9z" fill="#FEFEFE"/>
<path transform="translate(1056,1130)" d="m0 0 2 1-4 11-3 3h-2l2-6z" fill="#41AD8C"/>
</svg>
