<?xml version="1.0" encoding="UTF-8"?>
<svg version="1.1" viewBox="0 0 2000 2000" width="1280" height="1280" xmlns="http://www.w3.org/2000/svg">
<path transform="translate(0)" d="m0 0h2e3v2e3h-2e3z" fill="#FDFDFD"/>
<path transform="translate(887,652)" d="m0 0h62l1 45 22-13 26-15 15-9 11-7 6 1 22 13 43 25 27 16 21 12 39 23 22 13 24 14 26 15 17 10 22 13 7 4v45l-14 2-12 5-10 9-8 13-8 18-10 29-10 24-8 15-8 11-9 12-3-2-4-10-6-7-10-4h-17l-17 5-18 8-16 8-25 17-22 18-18 18-9 11-10 14h-3l-6-9-8-10-11-12-7-8-10-9-11-9-15-11-20-12-17-9-18-7-12-3h-17l-9 4-6 7-5 12-3-1-8-10-8-11-12-23-11-29-9-25-8-16-8-11-10-7-12-4-10-1v-44l3-3 14-8 27-16 24-14 27-16 24-14 6-2v-53l1-34z" fill="#0370B8"/>
<path transform="translate(756,876)" d="m0 0 10 2 9 7 8 14 8 21 9 25 8 19 10 19 12 17 9 9 10 8 10 6 11 5 19 6 17 3-3-5-15-15-9-11-5-7v-7l3-2h9l17 5 17 8 19 11 14 10 14 11 11 10 6 5 7 8 9 10 12 17 8 16 3 9 3 19 1-1 3-16 4-12 7-14 7-10 6-8 12-14 16-16 11-9 18-13 17-10 23-11 13-4 6-1h8l2 1v7l-6 9-15 16-12 12-1 2 19-3 21-7 16-8 13-11 9-9 10-14 8-14 7-15 11-29 10-27 6-12 6-7 7-4h12l-2 23-4 31-7 28-7 20-9 20-13 24-7 10-12 16-12 14-19 19-14 11-10 8-19 12-18 10-28 12-25 8-24 5-31 3h-29l-30-3-33-8-20-7-20-9-21-11-15-10-16-12-13-11-14-13v-2h-2l-9-11-12-15-12-18-10-18-8-16-7-17-7-24-5-23-3-28v-18z" fill="#077B91"/>
<path transform="translate(1e3 743)" d="m0 0h51l1 17v30l48 1 1 2-1 49h-48l-1 48-3 1h-45l-2-1-1-47-48-1-1-12v-38l1-1h46l2-1z" fill="#FEFEFE"/>
<path transform="translate(1182,1207)" d="m0 0h15l9 3 6 4 6 8 4 9 1 4v27l-4 10-7 8-8 5-10 3h-12l-14-3v30h-11v-88l6-12 5-4 7-3z" fill="#077B91"/>
<path transform="translate(610,1181)" d="m0 0h10l16 3 11 4 2 2v21l-9-2-17-4h-9l-10 4-6 7-2 5-1 7v13l3 12 7 8 7 2h10l13-2 12-4h2v23l-11 4-18 4h-9l-16-4-9-5-9-8-7-14-3-16v-10l2-18 5-12 8-9 9-6 12-4z" fill="#0370B7"/>
<path transform="translate(840,1207)" d="m0 0h13l11 3 8 7 7 12 3 11v12l-2 1-42 1 1 4 6 5 7 3 9-1 13-3h5l-1 18-12 5-12 3h-11l-9-2-8-4-8-7-5-10-2-7v-21l4-13 7-9 9-6z" fill="#0370B7"/>
<path transform="translate(691,1207)" d="m0 0h15l10 3 8 6 6 7 3 7 1 5v30l-3 10-4 5-12 6-10 2h-13l-12-3-10-6-4-7-1-3v-12l4-8 9-6 12-3 16-1-1-5-4-4-3-1h-8l-12 3-6 1v-19l4-3 9-3z" fill="#0370B7"/>
<path transform="translate(1352,1207)" d="m0 0h16l9 2 8 6 5 6 4 13v32l-3 9-7 7-11 5-5 1h-12l-13-4-8-6-5-8-1-3v-10l4-8 5-5 10-5 7-2 23-1 4-2-3-7-4-4-6-2h-21l-12 3v-9l3-5 6-2z" fill="#077B91"/>
<path transform="translate(970,1182)" d="m0 0 10 1v103l-11 1-1-1-1-45h-54v45l-4 1-7-1-1-102 1-1h11l1 44 54 1v-45z" fill="#077B91"/>
<path transform="translate(1032,1217)" d="m0 0 11 1 9 4 6 7 2 5 1 6v15l-3 10-5 7-8 4-10 1-9-1-8-5-6-9-1-4v-20l4-11 8-7z" fill="#FEFEFE"/>
<path transform="translate(790,1207)" d="m0 0h7v24l-16 1v54l-3 1-24-1-1-1v-68l9-4 14-4z" fill="#0370B7"/>
<path transform="translate(1028,1207)" d="m0 0h16l10 3 6 4 6 7 4 8 2 8v20l-2 9-4 8-5 6-12 6-8 2h-12l-11-4-9-6-6-9-3-9v-25l3-10 6-9 6-5 7-3zm4 10-9 3-8 7-4 11v20l3 8 6 7 6 3 11 1 11-2 7-5 5-10 1-5v-15l-2-9-4-6-6-5-11-3z" fill="#077B91"/>
<path transform="translate(1188,1217)" d="m0 0 10 2 7 4 5 8 2 10v14l-3 10-6 8-7 3h-18l-8-3-2-5v-39l3-6 10-5z" fill="#FEFEFE"/>
<path transform="translate(1107,1207)" d="m0 0h15l9 3 4 4v9l-6-1-9-3h-11l-8 4-3 5 2 5 5 4 13 4 11 4 7 7 4 9v9l-4 8-7 6-11 4h-13l-16-5-2-4v-8l3-1 9 4 5 1h13l8-4 2-2v-7l-2-4-8-4-20-7-8-6-3-9 1-10 5-8 7-5z" fill="#077B91"/>
<path transform="translate(1285,1187)" d="m0 0h10l1 1 1 19 18 1 1 1v10l-1 1h-19l1 48 2 5 3 2h13l2 5-3 7-9 1-9-2-6-4-4-6-2-8v-48h-12l-1-1v-9l2-2 10-1 1-19z" fill="#077B91"/>
<path transform="translate(1416,1179)" d="m0 0h11v107l-11 1-1-2v-105z" fill="#077B91"/>
<path transform="translate(1355,1248)" d="m0 0h25l2 1 1 3v11l-2 7-7 5-3 1h-19l-6-3-4-5-1-9 4-7z" fill="#FEFEFE"/>
<path transform="translate(1244,1208)" d="m0 0h11v78h-12v-77z" fill="#077B91"/>
<path transform="translate(926,1319)" d="m0 0 6 1 3 3 1 9-3 5-4 2h-7l-5-6v-9l4-4z" fill="#077B91"/>
<path transform="translate(1177,1321)" d="m0 0h10l2 1 1 15-2 7-4 2h-8l1-3 6-2 2-3-6 1-6-7 1-8z" fill="#077B91"/>
<path transform="translate(1132,1320)" d="m0 0h7l4 3v12l-3 4h-8l-4-4v-6l2-2z" fill="#077B91"/>
<path transform="translate(1341,1320)" d="m0 0h8l4 3 1 7-3 2h-10l2 3 9 2-1 2h-9l-5-6-1-5 3-7z" fill="#077B91"/>
<path transform="translate(697,1251)" d="m0 0h7l3 2v8l-4 5-5 2-4-2-2-3v-8z" fill="#FEFEFE"/>
<path transform="translate(794,1320)" d="m0 0h7l3 3v8l-3 1h-9l1 3 10 2-1 2h-8l-4-2-1-2v-11l2-3z" fill="#077B91"/>
<path transform="translate(844,1224)" d="m0 0 6 1 5 6v5l-1 1-14 1-2-1 3-10z" fill="#FEFEFE"/>
<path transform="translate(1243,1183)" d="m0 0h12l1 5v6l-1 2h-12z" fill="#077B91"/>
<path transform="translate(1292,1320)" d="m0 0h10l4 2 1 4v12l-3 1-2-13-1-2-7-1-1 15h-4l1-17z" fill="#077B91"/>
<path transform="translate(965,1320)" d="m0 0 3 1 1 12 1 2 6-1 3-5-1-9 4 1 1 1v8l-3 6-4 3h-7l-3-3-2-10v-5z" fill="#077B91"/>
<path transform="translate(926,1322)" d="m0 0 5 2 2 6-3 5-7 1-2-2v-10z" fill="#FEFEFE"/>
<path transform="translate(1091,1315)" d="m0 0 4 2 3 3-2 3v10l3 4v2h-6l-2-4-1-19z" fill="#077B91"/>
<path transform="translate(620,1320)" d="m0 0 3 1 3 10h2l2-9 4-2 1 1v6l-5 6-2 5h-3l-5-15z" fill="#077B91"/>
<path transform="translate(872,1320)" d="m0 0 4 1 6 10 2 3-1 6-4 5-7 1 8-8-5-10z" fill="#077B91"/>
<path transform="translate(751,1316)" d="m0 0h4l2 5v3l-2-1 1 10 3 4v2h-5l-3-9-1-10z" fill="#077B91"/>
<path transform="translate(1179,1323)" d="m0 0 6 1 2 5-2 5-6 2-2-3-1-6z" fill="#FEFEFE"/>
<path transform="translate(1133,1323)" d="m0 0 5 1 3 9-3 4-4-1-2-2z" fill="#FEFEFE"/>
<path transform="translate(1297,811)" d="m0 0 3 1v45h-9l4-3 2-2 1-4v-35z" fill="#077B91"/>
<path transform="translate(1013,1320)" d="m0 0h7v3h-4v16h-3l-1-6v-12z" fill="#077B91"/>
<path transform="translate(1221,1312)" d="m0 0 3 1v15l-1 10h-2z" fill="#077B91"/>
<path transform="translate(642,1320)" d="m0 0 2 1-1 9-3 7-4 1 1-6 3-5z" fill="#077B91"/>
<path transform="translate(678,1320)" d="m0 0h5l1 2-4 1-1 15h-3v-10l1-7z" fill="#077B91"/>
<path transform="translate(780,1232)" d="m0 0h1v54h-4l2-2z" fill="#077B91"/>
<path transform="translate(1256,1320)" d="m0 0 3 1v17l-4-1v-16z" fill="#077B91"/>
<path transform="translate(794,1322)" d="m0 0 7 2v3l-2 2h-6l-1-4z" fill="#FEFEFE"/>
<path transform="translate(1341,1323)" d="m0 0h6l2 2v3l-2 1h-6z" fill="#FEFEFE"/>
<path transform="translate(716,1320)" d="m0 0 3 3-1 15h-2l-1-4z" fill="#077B91"/>
<path transform="translate(1199,987)" d="m0 0 8 1-4 7-3-2z" fill="#077B91"/>
<path transform="translate(846,988)" d="m0 0 8 1-1 6-3-1z" fill="#077B91"/>
<path transform="translate(885,1321)" d="m0 0 3 1-1 6-1 2h-2v-7z" fill="#077B91"/>
</svg>
